Coordinates
version=1
nRows=33
nColumns=34
inDegrees=no

Units are S.I. units (second, meters, Newtons, ...)
If the header above contains a line with 'inDegrees', this indicates whether rotational values are in degrees (yes) or radians (no).

endheader
time	pelvis_tilt	pelvis_list	pelvis_rotation	pelvis_tx	pelvis_ty	pelvis_tz	hip_flexion_r	hip_adduction_r	hip_rotation_r	knee_angle_r	ankle_angle_r	subtalar_angle_r	mtp_angle_r	hip_flexion_l	hip_adduction_l	hip_rotation_l	knee_angle_l	ankle_angle_l	subtalar_angle_l	mtp_angle_l	lumbar_extension	lumbar_bending	lumbar_rotation	arm_flex_r	arm_add_r	arm_rot_r	elbow_flex_r	pro_sup_r	arm_flex_l	arm_add_l	arm_rot_l	elbow_flex_l	pro_sup_l
1.11	0.000995226	0.0969721	0.0169279	1.09925	0.923781	-0.167743	0.483584	-0.044138	0.0292432	0.32428	0.211384	0.251909	-0.00346241	-0.183917	0.117155	0.0865831	0.084694	0.229059	-0.0313427	-0.00347	-0.467249	-0.444733	-0.217939	-0.00890523	-0.296916	0.180783	0.836464	2.08637	0.183288	-0.310207	-0.178022	0.825298	2.17558
1.12	0.000677298	0.0985527	0.020954	1.10923	0.922444	-0.167885	0.475011	-0.0438766	0.0240656	0.26946	0.211753	0.258636	-0.00345787	-0.202034	0.116465	0.0908119	0.073604	0.22942	-0.0225868	-0.00346542	-0.470116	-0.441688	-0.217312	-0.00668607	-0.297244	0.17231	0.837781	2.08356	0.178884	-0.310462	-0.17335	0.823911	2.17549
1.13	0.000429416	0.099834	0.0255866	1.11936	0.921062	-0.168125	0.465674	-0.0434959	0.0203614	0.218025	0.212289	0.25737	-0.00345334	-0.219578	0.115255	0.0952677	0.0640723	0.229976	-0.0140039	-0.00346084	-0.472895	-0.437416	-0.216696	-0.00468788	-0.297516	0.163175	0.838631	2.08125	0.174279	-0.31059	-0.168075	0.821202	2.17432
1.14	0.000179494	0.100873	0.0307382	1.12967	0.919651	-0.16846	0.456013	-0.0430841	0.0182916	0.171312	0.212904	0.248005	-0.0034488	-0.23641	0.113627	0.100023	0.0561779	0.230442	-0.00602159	-0.00345627	-0.475469	-0.432005	-0.215997	-0.00284444	-0.297775	0.153613	0.8389	2.0795	0.16949	-0.31052	-0.162325	0.817178	2.17212
1.15	-0.000134598	0.101759	0.0362774	1.14014	0.918226	-0.168882	0.446523	-0.0427904	0.0176279	0.130707	0.213534	0.23125	-0.00344427	-0.252414	0.111727	0.105025	0.0499658	0.230577	0.00112393	-0.00345169	-0.477724	-0.425592	-0.215111	-0.00108565	-0.298072	0.143884	0.838516	2.07831	0.164507	-0.310178	-0.156278	0.811901	2.16895
1.16	-0.000548968	0.102586	0.0420377	1.1508	0.916801	-0.169386	0.437691	-0.0427769	0.017795	0.0974892	0.214134	0.208578	-0.00343974	-0.267518	0.109709	0.11007	0.04545	0.230226	0.00745578	-0.00344712	-0.479558	-0.418327	-0.213921	0.000649071	-0.298454	0.134234	0.837457	2.07765	0.1593	-0.309487	-0.150164	0.805461	2.16492
1.17	-0.00106259	0.103423	0.0478316	1.16163	0.915385	-0.169965	0.429927	-0.0431687	0.0180001	0.0726555	0.214633	0.182034	-0.0034352	-0.281705	0.107696	0.114819	0.0426158	0.229328	0.0132695	-0.00344255	-0.480889	-0.410341	-0.212287	0.00239874	-0.298972	0.124863	0.835747	2.07745	0.153825	-0.308359	-0.144256	0.797957	2.16013
1.18	-0.0016333	0.104288	0.0534673	1.17264	0.913989	-0.17061	0.423499	-0.0440144	0.0174221	0.0567569	0.214862	0.153909	-0.00343067	-0.295016	0.105752	0.118828	0.041428	0.227898	0.0190951	-0.00343797	-0.481663	-0.401717	-0.210047	0.00417306	-0.299669	0.115903	0.833447	2.07763	0.148036	-0.306704	-0.138846	0.789472	2.15476
1.19	-0.00218594	0.10514	0.0587639	1.18384	0.912618	-0.171314	0.418497	-0.045267	0.0153861	0.0497917	0.214503	0.126401	-0.00342614	-0.307522	0.103856	0.121595	0.0418518	0.225993	0.0256199	-0.0034334	-0.481851	-0.392475	-0.20702	0.00595108	-0.300579	0.107411	0.830646	2.07814	0.141889	-0.30443	-0.134218	0.780074	2.14901
1.2	-0.00261861	0.10587	0.0635634	1.19524	0.911316	-0.17206	0.414834	-0.0467849	0.0114883	0.0511852	0.213074	0.101321	-0.00342161	-0.319292	0.101907	0.122608	0.0438881	0.223673	0.0335915	-0.00342883	-0.481438	-0.382567	-0.203015	0.00768653	-0.301723	0.0993728	0.827435	2.07891	0.135352	-0.301458	-0.130621	0.769815	2.14314
1.21	-0.00283314	0.106318	0.0677392	1.20685	0.910109	-0.172837	0.412278	-0.0483465	0.0056403	0.0598704	0.20999	0.0799112	-0.00341708	-0.330344	0.0997215	0.12138	0.0476216	0.22096	0.0437172	-0.00342426	-0.480423	-0.371888	-0.197843	0.00932033	-0.303111	0.0917263	0.823901	2.07987	0.128398	-0.297735	-0.128236	0.758745	2.13738
1.22	-0.00275228	0.106275	0.071199	1.21865	0.909018	-0.173627	0.410518	-0.0496748	-0.00196015	0.0744536	0.204682	0.0627826	-0.00341255	-0.340595	0.0970518	0.11748	0.0532709	0.217809	0.0565726	-0.00341969	-0.478805	-0.360292	-0.191335	0.0107961	-0.304734	0.0843837	0.820113	2.08097	0.12101	-0.29324	-0.127164	0.746937	2.13198
1.23	-0.00234031	0.105513	0.0738847	1.23066	0.908061	-0.174414	0.409242	-0.0504682	-0.0109143	0.0934316	0.196765	0.0499747	-0.00340802	-0.349812	0.0936019	0.110552	0.0612318	0.214086	0.0725264	-0.00341512	-0.476576	-0.347606	-0.18336	0.0120761	-0.306574	0.077259	0.816122	2.08211	0.113176	-0.287995	-0.127426	0.734498	2.12712
1.24	-0.00161874	0.103797	0.0757716	1.24284	0.907255	-0.175184	0.408215	-0.0504325	-0.0207378	0.115409	0.186196	0.0411038	-0.00340349	-0.35759	0.0890467	0.100344	0.072098	0.209555	0.0916821	-0.00341055	-0.473715	-0.333653	-0.173842	0.0131533	-0.308606	0.0702911	0.81197	2.08322	0.104889	-0.28205	-0.128976	0.721585	2.12289
1.25	-0.000672861	0.1009	0.0768665	1.25519	0.906611	-0.175923	0.407323	-0.0493049	-0.0309727	0.139258	0.173372	0.03555	-0.00339897	-0.363353	0.0830467	0.0867343	0.0866483	0.203869	0.113832	-0.00340598	-0.470184	-0.318262	-0.162779	0.0140577	-0.310805	0.0634594	0.807701	2.08422	0.096139	-0.275481	-0.13174	0.70841	2.11929
1.26	0.000354026	0.0966175	0.0772067	1.26766	0.906138	-0.17662	0.406582	-0.0468672	-0.0412631	0.164181	0.15914	0.0326269	-0.00339444	-0.366395	0.0752598	0.0697798	0.105793	0.196573	0.138431	-0.00340142	-0.46593	-0.301278	-0.150241	0.0148542	-0.313154	0.0567914	0.803378	2.08508	0.0869146	-0.268368	-0.135639	0.695232	2.11621
1.27	0.00127951	0.0907703	0.0768584	1.28021	0.90584	-0.177268	0.406084	-0.042944	-0.0513806	0.189669	0.144678	0.0316971	-0.00338991	-0.365952	0.0653524	0.0497547	0.130478	0.187116	0.164588	-0.00339685	-0.460898	-0.282563	-0.136376	0.0156328	-0.315651	0.0503614	0.799091	2.08582	0.0772063	-0.260786	-0.14062	0.682339	2.11347
1.28	0.00191249	0.0832102	0.0759141	1.2928	0.905716	-0.177864	0.405921	-0.0373903	-0.0612017	0.215368	0.131296	0.0322202	-0.00338539	-0.361304	0.0530147	0.0271772	0.161569	0.174899	0.191113	-0.00339228	-0.455044	-0.262	-0.121395	0.016493	-0.318317	0.0442815	0.794968	2.08653	0.0670124	-0.252793	-0.146653	0.670026	2.11085
1.29	0.00208668	0.0738296	0.0744872	1.30539	0.905763	-0.17841	0.406093	-0.0300802	-0.0706563	0.240917	0.120197	0.0337516	-0.00338086	-0.351873	0.0379876	0.00281225	0.199714	0.159359	0.216604	-0.00338772	-0.448353	-0.2395	-0.105552	0.0175271	-0.321186	0.0386877	0.791166	2.08734	0.0563488	-0.244441	-0.15371	0.658563	2.10813
1.3	0.00168941	0.0625783	0.0727053	1.31795	0.905971	-0.178912	0.40644	-0.0209065	-0.0796768	0.265816	0.112266	0.0359226	-0.00337634	-0.337316	0.0201041	-0.0223573	0.245226	0.140081	0.239582	-0.00338315	-0.440854	-0.215024	-0.0891232	0.0188038	-0.32431	0.0337222	0.787862	2.08838	0.0452609	-0.235779	-0.16173	0.648167	2.10516
1.31	0.000679109	0.0494873	0.0707015	1.33043	0.906331	-0.179377	0.406621	-0.00980033	-0.0881686	0.289364	0.107946	0.0384338	-0.00337181	-0.317575	-0.000660432	-0.0472005	0.298004	0.116932	0.258678	-0.00337859	-0.432625	-0.188612	-0.0723917	0.0203582	-0.327736	0.0295143	0.785232	2.08975	0.033834	-0.226882	-0.17057	0.638979	2.10189
1.32	-0.000911283	0.0346936	0.0686055	1.34282	0.906831	-0.179815	0.406149	0.00323101	-0.0960134	0.310698	0.107225	0.0410753	-0.00336729	-0.292888	-0.024138	-0.070542	0.3575	0.0902019	0.272842	-0.00337402	-0.42379	-0.16042	-0.0556284	0.0221877	-0.331498	0.0261607	0.783426	2.09147	0.0221999	-0.217864	-0.179965	0.631053	2.09843
1.33	-0.00298497	0.0184605	0.0665376	1.35512	0.907457	-0.180237	0.40447	0.0180572	-0.103098	0.32891	0.109728	0.0437618	-0.00336276	-0.263753	-0.0499317	-0.0912668	0.422749	0.0606825	0.281508	-0.00336946	-0.414507	-0.130746	-0.0390848	0.0242562	-0.335594	0.0237077	0.782541	2.09342	0.0105365	-0.208894	-0.189519	0.624352	2.09498
1.34	-0.00540275	0.00118414	0.0646036	1.36732	0.908194	-0.18065	0.401058	0.0343889	-0.109353	0.343199	0.114857	0.0465663	-0.00335824	-0.230858	-0.07741	-0.108421	0.492451	0.0296836	0.284692	-0.0033649	-0.40495	-0.100045	-0.0229895	0.0265044	-0.339979	0.0221389	0.78261	2.09542	-0.000940666	-0.200201	-0.198708	0.618771	2.09186
1.35	-0.00800759	-0.0166232	0.0628927	1.37942	0.909027	-0.18106	0.395505	0.0517698	-0.114791	0.353023	0.121954	0.049728	-0.00335372	-0.194996	-0.105744	-0.121299	0.565087	-0.00105496	0.282989	-0.00336033	-0.395297	-0.0689075	-0.00754697	0.0288647	-0.344553	0.0213685	0.783587	2.0972	-0.0119965	-0.192062	-0.206928	0.614168	2.08941
1.36	-0.0106457	-0.0343761	0.0614771	1.39141	0.909941	-0.181472	0.387583	0.0696063	-0.119519	0.358185	0.130418	0.0536191	-0.0033492	-0.156976	-0.133982	-0.129497	0.639064	-0.0295489	0.277464	-0.00335577	-0.385709	-0.0380078	0.00706369	0.031277	-0.349168	0.0212432	0.785358	2.09846	-0.0223993	-0.184773	-0.213559	0.610395	2.08795
1.37	-0.0131811	-0.0514775	0.0604101	1.40331	0.91092	-0.181888	0.377255	0.0872324	-0.12373	0.358856	0.139771	0.0586702	-0.00334468	-0.117562	-0.161156	-0.132946	0.712841	-0.0538319	0.269455	-0.00335121	-0.376334	-0.00803642	0.0206925	0.0337009	-0.353641	0.0215531	0.787748	2.09899	-0.0319476	-0.178618	-0.218049	0.607348	2.08771
1.38	-0.0155023	-0.0673867	0.0597235	1.4151	0.911952	-0.182307	0.364659	0.103997	-0.127656	0.355519	0.149663	0.0652712	-0.00334016	-0.0774172	-0.186388	-0.131898	0.785035	-0.0722451	0.260314	-0.00334665	-0.367297	0.0203797	0.0332256	0.0361244	-0.357773	0.0220512	0.79055	2.09864	-0.0404931	-0.173822	-0.219993	0.604989	2.08876
1.39	-0.0175238	-0.0816773	0.0594221	1.42678	0.913028	-0.18273	0.350057	0.119349	-0.131517	0.348864	0.159835	0.0736698	-0.00333564	-0.0370929	-0.208984	-0.126894	0.854484	-0.0836907	0.25116	-0.00334209	-0.358706	0.0467432	0.0445949	0.0385636	-0.361375	0.0224787	0.793554	2.09744	-0.047957	-0.170525	-0.219197	0.603362	2.09106
1.4	-0.0191924	-0.0940935	0.0594798	1.43831	0.914119	-0.183151	0.333775	0.132902	-0.13545	0.339658	0.170069	0.0838943	-0.00333112	0.00297527	-0.228484	-0.118694	0.920276	-0.0877879	0.24269	-0.00333753	-0.350658	0.0707205	0.0547844	0.0410578	-0.36429	0.0225926	0.796571	2.09554	-0.0543346	-0.168752	-0.21571	0.602595	2.0944
1.41	-0.0204708	-0.104519	0.0598338	1.44969	0.915238	-0.183569	0.316145	0.144472	-0.139466	0.328628	0.180136	0.0957208	-0.00332659	0.0424597	-0.244684	-0.108178	0.981748	-0.0848892	0.235096	-0.00333296	-0.343232	0.0921686	0.0638351	0.0436598	-0.366414	0.0221915	0.799458	2.09321	-0.0596881	-0.168419	-0.209818	0.602875	2.09849
1.42	-0.0213442	-0.112974	0.0603912	1.46091	0.916394	-0.183982	0.297468	0.154064	-0.143429	0.316374	0.189773	0.108694	-0.00332207	0.081127	-0.257602	-0.0962541	1.03846	-0.0759523	0.228108	-0.0033284	-0.336493	0.111107	0.071837	0.046425	-0.3677	0.0211338	0.802125	2.09075	-0.0641274	-0.169352	-0.201988	0.604421	2.10296
1.43	-0.0218182	-0.119582	0.061042	1.47197	0.917592	-0.184392	0.277983	0.16183	-0.147079	0.303322	0.198688	0.122199	-0.00331755	0.118828	-0.267413	-0.0837501	1.09015	-0.062298	0.221132	-0.00332384	-0.330483	0.127671	0.0789126	0.049403	-0.368155	0.0193431	0.804533	2.08845	-0.0677855	-0.17132	-0.192785	0.607442	2.10747
